<?xml version="1.0" encoding="UTF-8" standalone="no"?>
<!-- Created with Inkscape (http://www.inkscape.org/) -->

<svg
   xmlns:dc="http://purl.org/dc/elements/1.1/"
   xmlns:cc="http://creativecommons.org/ns#"
   xmlns:rdf="http://www.w3.org/1999/02/22-rdf-syntax-ns#"
   xmlns:svg="http://www.w3.org/2000/svg"
   xmlns="http://www.w3.org/2000/svg"
   xmlns:sodipodi="http://sodipodi.sourceforge.net/DTD/sodipodi-0.dtd"
   xmlns:inkscape="http://www.inkscape.org/namespaces/inkscape"
   width="1431.4375"
   height="407.87"
   id="svg2"
   version="1.1"
   inkscape:version="0.48.3.1 r9886"
   sodipodi:docname="moho-correction-tesseroid.svg"
   inkscape:export-filename="/home/leo/Dropbox/seminatio2012/img/moho/moho-correction-tesseroid.png"
   inkscape:export-xdpi="120"
   inkscape:export-ydpi="120">
  <defs
     id="defs4" />
  <sodipodi:namedview
     id="base"
     pagecolor="#ffffff"
     bordercolor="#666666"
     borderopacity="1.0"
     inkscape:pageopacity="0.0"
     inkscape:pageshadow="2"
     inkscape:zoom="0.98994949"
     inkscape:cx="711.32045"
     inkscape:cy="199.16455"
     inkscape:document-units="px"
     inkscape:current-layer="layer1"
     showgrid="false"
     inkscape:window-width="1366"
     inkscape:window-height="744"
     inkscape:window-x="0"
     inkscape:window-y="24"
     inkscape:window-maximized="1"
     fit-margin-top="0"
     fit-margin-left="0"
     fit-margin-right="0"
     fit-margin-bottom="0" />
  <metadata
     id="metadata7">
    <rdf:RDF>
      <cc:Work
         rdf:about="">
        <dc:format>image/svg+xml</dc:format>
        <dc:type
           rdf:resource="http://purl.org/dc/dcmitype/StillImage" />
        <dc:title></dc:title>
      </cc:Work>
    </rdf:RDF>
  </metadata>
  <g
     inkscape:label="Layer 1"
     inkscape:groupmode="layer"
     id="layer1"
     transform="translate(700,-14.87164)">
    <path
       style="fill:none;stroke:#000000;stroke-width:1px;stroke-linecap:butt;stroke-linejoin:miter;stroke-opacity:1"
       d="m -699.99997,143.50504 505.71426,2.85714 182.85714,-42.85714 c 0,0 220,-77.14286 245.71428,-77.14286 25.71429,0 262.85715,82.85715 262.85715,82.85715 l 177.14285,-60 57.14286,0"
       id="path2987"
       inkscape:connector-curvature="0"
       sodipodi:nodetypes="cccsccc" />
    <path
       style="fill:none;stroke:#000000;stroke-width:1px;stroke-linecap:butt;stroke-linejoin:miter;stroke-opacity:1"
       d="m -194.28571,146.36218 c -11.97046,14.96307 193.35002,111.2386 234.28571,120 18.99307,4.06506 195.63257,36.31716 220,48.57143 23.35619,11.74573 197.97923,-59.94856 220,-65.71429 155.22045,9.3771 188.83665,8.57144 250,31.42858"
       id="path2989"
       inkscape:connector-curvature="0"
       sodipodi:nodetypes="csscc" />
    <path
       style="fill:none;stroke:#000000;stroke-width:1px;stroke-linecap:butt;stroke-linejoin:miter;stroke-opacity:1"
       d="M -158.57143,174.93361 -700,177.79075"
       id="path2991"
       inkscape:connector-curvature="0"
       sodipodi:nodetypes="cc" />
    <path
       style="fill:none;stroke:#000000;stroke-width:1px;stroke-linecap:butt;stroke-linejoin:miter;stroke-opacity:1"
       d="m 1432.8571,32.155709 -4.2857,232.857141"
       id="path3012"
       inkscape:connector-curvature="0"
       transform="translate(-700,14.87164)" />
    <path
       style="fill:#e9c6af;fill-opacity:1"
       d="M 955.78198,296.9513 C 931.60875,289.1645 879.72494,277.60936 793.03474,260.70554 764.35616,255.11347 735.74902,248.8805 729.46331,246.8545 669.85335,227.64111 531.92336,159.37429 511.54987,139.00079 c -5.07327,-5.07327 -5.24371,-6.30712 -1.01513,-7.34903 1.76785,-0.4356 43.07142,-10.14753 91.78571,-21.58208 85.6099,-20.094933 90.09996,-21.316316 134.28571,-36.528246 57.63623,-19.842559 142.21778,-47.041469 169.28572,-54.437256 11.55241,-3.156471 24.04023,-5.678771 28.234,-5.702724 13.35277,-0.07627 80.77332,20.438694 200.42372,60.985677 33.4404,11.332214 61.7263,20.604026 62.8576,20.604026 1.1314,0 41.8373,-13.5 90.4577,-30 l 88.4007,-30 27.6703,0 27.6703,0 -0.03,6.071428 c -0.016,3.339286 -0.9662,53 -2.1103,110.357145 -1.1441,57.35714 -2.0948,105.97773 -2.1127,108.04573 l -0.033,3.76003 -14.9344,-4.73942 c -37.9666,-12.04866 -63.5369,-15.31097 -168.0941,-21.44578 l -66.2573,-3.8876 -47.8571,17.51691 c -90.5248,33.13434 -133.10616,46.36001 -157.96705,49.06414 -3.7615,0.40915 -9.57983,-0.57628 -16.42857,-2.78244 z"
       id="path3014"
       inkscape:connector-curvature="0"
       transform="translate(-700,14.87164)" />
    <path
       style="fill:#6c5353;stroke:#000000;stroke-width:1px;stroke-linecap:butt;stroke-linejoin:miter;stroke-opacity:1"
       d="M -1.4285714,126.44142 0,165.01285"
       id="path3016"
       inkscape:connector-curvature="0"
       transform="translate(-700,14.87164)" />
    <path
       style="fill:#6c5353;fill-opacity:1"
       d="M 1.0999544,157.81725 C 0.59265512,155.28076 0.17759212,147.74753 0.17759212,141.07675 l 0,-12.1287 25.35714288,0.86368 c 13.946429,0.47502 127.410715,1.27095 252.142855,1.76874 172.13446,0.68696 226.78572,1.30923 226.78572,2.58224 0,2.63041 9.78064,11.42745 20.45688,18.39959 l 9.7426,6.36242 -212.59974,0.88929 c -116.92986,0.48911 -236.773966,1.27759 -266.320238,1.75218 l -53.7204953,0.86288 -0.9223623,-4.61182 z"
       id="path3018"
       inkscape:connector-curvature="0"
       transform="translate(-700,14.87164)" />
    <path
       style="fill:none;stroke:#000000;stroke-width:1px;stroke-linecap:butt;stroke-linejoin:miter;stroke-opacity:1"
       d="M -1.4285714,162.15571 1.4285714,407.87 1431.4286,412.15571 1430,260.72714"
       id="path3020"
       inkscape:connector-curvature="0"
       transform="translate(-700,14.87164)" />
    <path
       style="fill:#aa0000;fill-opacity:1"
       d="M 559.71506,408.47751 C 254.21068,407.49171 3.8763701,406.30899 3.416596,405.84921 2.0161654,404.44877 -0.31563945,166.33403 1.0585198,165.05174 1.752581,164.40408 123.17759,163.31006 270.89188,162.62058 l 268.57143,-1.2536 12.14285,7.00318 c 28.33586,16.34222 111.21433,55.73814 149.28572,70.96233 24.50527,9.79929 37.1325,13.05837 93.99214,24.2593 91.53289,18.0313 140.21187,29.02697 160.83033,36.32855 18.99244,6.72577 49.90075,-1.35415 165.17755,-43.17996 53.1933,-19.30011 57.7846,-20.71716 66.4285,-20.50219 5.1072,0.12702 30.5,1.49917 56.4286,3.04924 107.4623,6.42432 129.8251,9.42141 171.5554,22.99205 l 12.9839,4.22235 0.9423,48.17324 c 0.5183,26.49527 0.9434,58.94109 0.9447,72.1018 l 0,23.92857 -157.5,-0.21778 c -86.625,-0.11986 -407.45812,-1.02436 -712.96252,-2.01015 l 0.002,0 z"
       id="path3022"
       inkscape:connector-curvature="0"
       transform="translate(-700,14.87164)" />
    <path
       style="fill:none;stroke:#000000;stroke-width:3.7;stroke-linecap:butt;stroke-linejoin:miter;stroke-opacity:1;stroke-miterlimit:4;stroke-dasharray:none"
       d="m 0,212.15571 1430,1.42857"
       id="path3036"
       inkscape:connector-curvature="0"
       transform="translate(-700,14.87164)"
       sodipodi:nodetypes="cc" />
    <text
       xml:space="preserve"
       style="font-size:40px;font-style:normal;font-weight:normal;line-height:125%;letter-spacing:0px;word-spacing:0px;fill:#000000;fill-opacity:1;stroke:none;font-family:Sans"
       x="-688.57141"
       y="264.17023"
       id="text3806"
       sodipodi:linespacing="125%"><tspan
         sodipodi:role="line"
         id="tspan3808"
         x="-688.57141"
         y="264.17023">Referência</tspan></text>
    <text
       xml:space="preserve"
       style="font-size:40px;font-style:normal;font-weight:normal;line-height:125%;letter-spacing:0px;word-spacing:0px;fill:#000000;fill-opacity:1;stroke:none;font-family:Sans"
       x="35.714287"
       y="379.29858"
       id="text3810"
       sodipodi:linespacing="125%"
       transform="translate(-700,14.87164)"><tspan
         sodipodi:role="line"
         id="tspan3812"
         x="35.714287"
         y="379.29858">Manto</tspan></text>
    <text
       xml:space="preserve"
       style="font-size:40px;font-style:normal;font-weight:normal;line-height:125%;letter-spacing:0px;word-spacing:0px;fill:#000000;fill-opacity:1;stroke:none;font-family:Sans"
       x="138.57143"
       y="121.31306"
       id="text3814"
       sodipodi:linespacing="125%"><tspan
         sodipodi:role="line"
         id="tspan3816"
         x="138.57143"
         y="121.31306">Crosta</tspan></text>
    <rect
       style="fill:none;stroke:#000000;stroke-width:3.70000005;stroke-miterlimit:4;stroke-dasharray:none"
       id="rect3017"
       width="37.142857"
       height="38.57143"
       x="8"
       y="227.88449"
       rx="0"
       ry="0" />
    <rect
       style="fill:none;stroke:#000000;stroke-width:3.70000005;stroke-miterlimit:4;stroke-dasharray:none"
       id="rect3017-9"
       width="38.153004"
       height="44.632359"
       x="46"
       y="227.88449"
       rx="0"
       ry="0" />
    <rect
       style="fill:none;stroke:#000000;stroke-width:3.70000005;stroke-miterlimit:4;stroke-dasharray:none"
       id="rect3017-9-1"
       width="36.132702"
       height="55.744034"
       x="84"
       y="227.88449"
       rx="0"
       ry="0" />
    <rect
       style="fill:none;stroke:#000000;stroke-width:3.70000005;stroke-miterlimit:4;stroke-dasharray:none"
       id="rect3017-9-1-8"
       width="37.142853"
       height="58.774494"
       x="120"
       y="227.88449"
       rx="0"
       ry="0" />
    <rect
       style="fill:none;stroke:#000000;stroke-width:3.70000005;stroke-miterlimit:4;stroke-dasharray:none"
       id="rect3017-9-1-8-9"
       width="37.142853"
       height="70.896324"
       x="158"
       y="227.88449"
       rx="0"
       ry="0" />
  </g>
</svg>
